<svg xmlns="http://www.w3.org/2000/svg" width="2978.8" height="1129.7" viewBox="0 0 2978.8 1129.7">
  <g id="Group_3" data-name="Group 3" transform="translate(-136 -218)">
    <g id="Group_2" data-name="Group 2">
      <g id="Group_1" data-name="Group 1" transform="translate(61.8 168.4)">
        <path id="Path_1" data-name="Path 1" d="M2965.5,688.5V437.2H3053V306.8h-87.5V49.6H2835.3V306.8H2748V437.1h87.4V688.5c0,133.6,91.2,226.9,215.6,226.9V785.1C3001.3,785.1,2965.5,741.8,2965.5,688.5Z" fill="#f04e4a"/>
        <path id="Path_2" data-name="Path 2" d="M1945.3,307.2H1816.5v608h128.8V584.3c5.9-47.8,21.4-88.1,53.2-120.9,20.1-20.7,46.3-34.9,69.7-42.5V282.4q-61.5,11.25-122.9,53.1V307.2Z" fill="#f04e4a"/>
        <path id="Path_3" data-name="Path 3" d="M1589.3,307.2H1460.5V915.3h128.8v-331c5.9-47.8,21.4-88.1,53.2-120.9,20.1-20.7,46.3-34.9,69.7-42.5V282.4q-61.5,11.25-122.9,53.1V307.2Z" fill="#f04e4a"/>
        <path id="Path_4" data-name="Path 4" d="M2421.6,307.2c-167.6,0-304,136.4-304,304s136.4,304,304,304c167.9,0,304-136.1,304-304a304.272,304.272,0,0,0-63.3-185.7C2604.2,350.3,2516.5,307.2,2421.6,307.2Zm134.3,414.1a173.406,173.406,0,0,1-134.3,63.6c-95.8,0-173.7-77.9-173.7-173.7s77.9-173.7,173.7-173.7c95.9,0,173.7,77.8,173.7,173.7A174.364,174.364,0,0,1,2555.9,721.3Z" fill="#f04e4a"/>
        <path id="Path_5" data-name="Path 5" d="M1204.5,362.2A301.751,301.751,0,0,0,1030,307.3c-167.6,0-304,136.4-304,304s136.4,304,304,304a302.8,302.8,0,0,0,174.5-55v55.1h130.3V307.2H1204.5Zm-40.1,359.1a173.557,173.557,0,0,1-134.3,63.6c-95.8,0-173.7-77.9-173.7-173.7s77.9-173.7,173.7-173.7c95.9,0,173.7,77.8,173.7,173.7A173.224,173.224,0,0,1,1164.4,721.3Z" fill="#f04e4a"/>
        <path id="Path_6" data-name="Path 6" d="M379,307.2a301.98,301.98,0,0,0-174.5,54.9V307.2H74.2v872.1H204.5V860.2a302.575,302.575,0,0,0,174.5,55c167.6,0,304-136.4,304-304S546.6,307.2,379,307.2Zm0,477.7c-95.9.7-174.3-76.4-175-172.4a173.618,173.618,0,0,1,172.4-175H379c95.8,0,173.7,77.9,173.7,173.7S474.7,784.9,379,784.9Z" fill="#f04e4a"/>
      </g>
    </g>
  </g>
</svg>
